<svg width="27" height="34" viewBox="0 0 27 34" fill="none" xmlns="http://www.w3.org/2000/svg">
<path d="M22.5495 18.0632C22.596 23.2083 26.952 24.9207 27 24.9426C26.9632 25.063 26.3042 27.3827 24.7054 29.7782C23.3233 31.8494 21.8887 33.9129 19.6293 33.9561C17.4091 33.9977 16.6951 32.6058 14.1566 32.6058C11.6188 32.6058 10.8258 33.9129 8.72389 33.9977C6.5427 34.0826 4.88172 31.7577 3.48818 29.6945C0.640789 25.4733 -1.53533 17.7663 1.38653 12.5639C2.83799 9.98044 5.43235 8.34467 8.24799 8.30253C10.3897 8.26065 12.4112 9.77983 13.7204 9.77983C15.0288 9.77983 17.4855 7.95277 20.0681 8.22097C21.1493 8.26722 24.1841 8.6687 26.1328 11.5938C25.9761 11.6937 22.5119 13.7616 22.5495 18.0632ZM18.3769 5.42865C19.5348 3.99157 20.3142 1.99045 20.1017 0C18.4325 0.0686928 16.4141 1.14041 15.217 2.57694C14.144 3.84871 13.2045 5.88487 13.4578 7.83591C15.3184 7.98369 17.2188 6.86655 18.3769 5.42865Z" fill="white"/>
</svg>
