<svg width="22" height="20" viewBox="0 0 22 20" fill="none" xmlns="http://www.w3.org/2000/svg">
<path fill-rule="evenodd" clip-rule="evenodd" d="M6.1314 1.48444C6.43272 1.02785 6.84099 0.653462 7.31994 0.394507C7.7989 0.135551 8.33375 3.98651e-05 8.877 0H13.123C13.6663 3.98651e-05 14.2011 0.135551 14.6801 0.394507C15.159 0.653462 15.5673 1.02785 15.8686 1.48444L16.7618 2.83889C16.8623 2.99102 16.9984 3.11574 17.158 3.20199C17.3177 3.28825 17.4959 3.33336 17.677 3.33333H18.7C19.5752 3.33333 20.4146 3.68452 21.0335 4.30964C21.6523 4.93477 22 5.78261 22 6.66667V16.6667C22 17.5507 21.6523 18.3986 21.0335 19.0237C20.4146 19.6488 19.5752 20 18.7 20H3.3C2.42479 20 1.58542 19.6488 0.966548 19.0237C0.347678 18.3986 0 17.5507 0 16.6667V6.66667C0 5.78261 0.347678 4.93477 0.966548 4.30964C1.58542 3.68452 2.42479 3.33333 3.3 3.33333H4.323C4.50405 3.33336 4.68231 3.28825 4.84196 3.20199C5.00161 3.11574 5.13772 2.99102 5.2382 2.83889L6.1314 1.48444ZM8.8 11.1111C8.8 10.5217 9.03179 9.95651 9.44437 9.53976C9.85695 9.12302 10.4165 8.88889 11 8.88889C11.5835 8.88889 12.1431 9.12302 12.5556 9.53976C12.9682 9.95651 13.2 10.5217 13.2 11.1111C13.2 11.7005 12.9682 12.2657 12.5556 12.6825C12.1431 13.0992 11.5835 13.3333 11 13.3333C10.4165 13.3333 9.85695 13.0992 9.44437 12.6825C9.03179 12.2657 8.8 11.7005 8.8 11.1111ZM11 6.66667C9.83305 6.66667 8.71389 7.13492 7.88873 7.96841C7.06357 8.80191 6.6 9.93237 6.6 11.1111C6.6 12.2899 7.06357 13.4203 7.88873 14.2538C8.71389 15.0873 9.83305 15.5556 11 15.5556C12.167 15.5556 13.2861 15.0873 14.1113 14.2538C14.9364 13.4203 15.4 12.2899 15.4 11.1111C15.4 9.93237 14.9364 8.80191 14.1113 7.96841C13.2861 7.13492 12.167 6.66667 11 6.66667Z" fill="#0024A6"/>
</svg>
