<svg width="18" height="18" viewBox="0 0 18 18" fill="none" xmlns="http://www.w3.org/2000/svg">
<path d="M14.6794 0.601686C14.856 0.414917 15.0683 0.265459 15.3037 0.162146C15.5391 0.0588325 15.7929 0.00376077 16.0499 0.000185972C16.307 -0.00338882 16.5621 0.0446058 16.8003 0.141333C17.0385 0.23806 17.2549 0.381557 17.4367 0.563341C17.6185 0.745125 17.7619 0.961508 17.8587 1.1997C17.9554 1.43789 18.0034 1.69306 17.9998 1.95011C17.9962 2.20717 17.9412 2.4609 17.8379 2.69631C17.7345 2.93172 17.5851 3.14403 17.3983 3.32069L11.763 8.95615C11.7555 8.9636 11.7496 8.97244 11.7455 8.98218C11.7415 8.99191 11.7394 9.00235 11.7394 9.01289C11.7394 9.02343 11.7415 9.03387 11.7455 9.04361C11.7496 9.05334 11.7555 9.06219 11.763 9.06963L17.3983 14.7051C17.5793 14.8831 17.7233 15.0953 17.8219 15.3292C17.9205 15.5632 17.9719 15.8144 17.9729 16.0683C17.974 16.3221 17.9248 16.5737 17.8281 16.8085C17.7315 17.0433 17.5893 17.2566 17.4098 17.4362C17.2303 17.6157 17.017 17.758 16.7822 17.8547C16.5475 17.9514 16.2959 18.0007 16.042 17.9997C15.7881 17.9987 15.5369 17.9474 15.3029 17.8488C15.069 17.7503 14.8568 17.6063 14.6787 17.4254L9.04337 11.7899C9.03592 11.7824 9.02708 11.7765 9.01734 11.7725C9.00761 11.7684 8.99717 11.7664 8.98663 11.7664C8.97609 11.7664 8.96565 11.7684 8.95591 11.7725C8.94618 11.7765 8.93733 11.7824 8.92989 11.7899L3.29452 17.4254C3.11648 17.6064 2.90437 17.7504 2.67041 17.849C2.43645 17.9476 2.18528 17.9989 1.93139 18C1.6775 18.001 1.42591 17.9518 1.19113 17.8552C0.956358 17.7585 0.743042 17.6163 0.563491 17.4368C0.38394 17.2573 0.241707 17.044 0.144997 16.8093C0.0482858 16.5745 -0.000988758 16.3229 1.50331e-05 16.069C0.00101882 15.8151 0.0522812 15.5639 0.150845 15.33C0.249409 15.096 0.393324 14.8838 0.574289 14.7057L6.20966 9.07027C6.21712 9.06283 6.22304 9.05398 6.22708 9.04425C6.23112 9.03451 6.2332 9.02407 6.2332 9.01353C6.2332 9.00299 6.23112 8.99255 6.22708 8.98282C6.22304 8.97308 6.21712 8.96424 6.20966 8.95679L0.574289 3.32133C0.218403 2.95968 0.0198369 2.47205 0.0218429 1.96466C0.0238489 1.45726 0.226265 0.971219 0.584999 0.612394C0.943733 0.253569 1.42972 0.0510351 1.9371 0.0489094C2.44449 0.0467838 2.93215 0.245239 3.29388 0.601045L8.92925 6.23651C8.93669 6.24397 8.94554 6.2499 8.95527 6.25394C8.96501 6.25798 8.97544 6.26006 8.98599 6.26006C8.99653 6.26006 9.00696 6.25798 9.0167 6.25394C9.02644 6.2499 9.03528 6.24397 9.04272 6.23651L14.6794 0.601686Z" fill="#0024A6"/>
</svg>
