<svg width="17" height="22" viewBox="0 0 17 22" fill="none" xmlns="http://www.w3.org/2000/svg">
<path d="M14.2955 7.07118H9.27273V14.1918C9.27273 14.4002 9.19132 14.6001 9.0464 14.7474C8.90149 14.8948 8.70494 14.9776 8.5 14.9776C8.29506 14.9776 8.09851 14.8948 7.9536 14.7474C7.80868 14.6001 7.72727 14.4002 7.72727 14.1918V7.07118H2.70455C1.98749 7.07196 1.30002 7.36195 0.79299 7.87751C0.285956 8.39308 0.000767041 9.09211 0 9.82123V19.25C0.000767041 19.9791 0.285956 20.6781 0.79299 21.1937C1.30002 21.7092 1.98749 21.9992 2.70455 22H14.2955C15.0125 21.9992 15.7 21.7092 16.207 21.1937C16.714 20.6781 16.9992 19.9791 17 19.25V9.82123C16.9992 9.09211 16.714 8.39308 16.207 7.87751C15.7 7.36195 15.0125 7.07196 14.2955 7.07118ZM9.27273 2.6824L11.8174 5.26941C11.9635 5.41054 12.158 5.48806 12.3595 5.48544C12.561 5.48281 12.7536 5.40026 12.896 5.25537C13.0385 5.11048 13.1197 4.91472 13.1223 4.70983C13.1249 4.50495 13.0487 4.30714 12.9099 4.15859L9.04622 0.229952C8.90132 0.082711 8.70485 0 8.5 0C8.29515 0 8.09868 0.082711 7.95378 0.229952L4.09014 4.15859C3.95134 4.30714 3.87511 4.50495 3.87769 4.70983C3.88027 4.91472 3.96146 5.11048 4.10395 5.25537C4.24644 5.40026 4.43896 5.48281 4.64046 5.48544C4.84196 5.48806 5.03649 5.41054 5.18258 5.26941L7.72727 2.6824V7.07118H9.27273V2.6824Z" fill="#0024A6"/>
</svg>
