<svg width="22" height="20" viewBox="0 0 22 20" fill="none" xmlns="http://www.w3.org/2000/svg">
<path d="M16.082 4.1866e-05H5.907C4.34708 -0.00292249 2.84957 0.618657 1.74242 1.72866C0.635273 2.83865 0.00872815 4.3466 0 5.92225V14.0667C0.00582495 15.6443 0.63109 17.155 1.73855 18.2674C2.84601 19.3798 4.34518 20.0029 5.907 20H16.082C17.6448 20.003 19.1451 19.3802 20.2544 18.2681C21.3636 17.156 21.9913 15.6453 22 14.0667V5.92225C21.9913 4.34467 21.3632 2.83504 20.2537 1.72472C19.1442 0.614408 17.6438 -0.00586937 16.082 4.1866e-05ZM9.878 10.6445C9.89843 11.207 9.76524 11.7644 9.493 12.2556C9.23118 12.6987 8.84956 13.0572 8.393 13.2889C7.90913 13.5351 7.37267 13.6573 6.831 13.6445C6.22374 13.6595 5.62359 13.5098 5.093 13.2111C4.58756 12.9163 4.18136 12.4751 3.927 11.9445C3.6325 11.3402 3.48541 10.6734 3.498 10C3.498 9.47446 3.5838 8.95335 3.751 8.45557C3.90786 8.04042 4.14748 7.66223 4.455 7.34447C4.76449 7.02478 5.14012 6.77815 5.555 6.62225C6.32652 6.32089 7.1773 6.29735 7.964 6.55558C8.2929 6.66669 8.602 6.83225 8.877 7.04447C9.41402 7.47171 9.76517 8.09343 9.856 8.7778H8.338C8.28506 8.54305 8.17018 8.32717 8.00556 8.15306C7.84094 7.97895 7.63272 7.85312 7.403 7.78891C7.22805 7.76143 7.04995 7.76143 6.875 7.78891C6.53303 7.77313 6.19484 7.86663 5.90849 8.05613C5.62215 8.24562 5.40223 8.52147 5.28 8.84446C5.11599 9.24178 5.03726 9.66971 5.049 10.1C5.04024 10.5327 5.11496 10.9629 5.269 11.3667C5.4043 11.6856 5.6254 11.9578 5.907 12.1556C6.1952 12.3422 6.5329 12.4356 6.875 12.4222C7.1709 12.4311 7.4646 12.37 7.733 12.2445C7.97556 12.1229 8.17526 11.929 8.305 11.6889C8.42367 11.4633 8.48419 11.2111 8.481 10.9556H6.941V9.84446H9.911L9.878 10.6445ZM12.595 13.4667C12.6051 13.4916 12.6051 13.5195 12.595 13.5445H11.198V6.64447H12.595C12.6025 6.66604 12.6025 6.68957 12.595 6.71114V13.4667ZM18.469 7.71113H15.422C15.4171 7.72155 15.4146 7.73294 15.4146 7.74447C15.4146 7.756 15.4171 7.76738 15.422 7.7778V9.26668C15.4178 9.28871 15.4178 9.31133 15.422 9.33335H18.249V10.5778H15.422C15.4145 10.5994 15.4145 10.6229 15.422 10.6445V13.4222H14.036V6.46669C14.0341 6.45459 14.0351 6.4422 14.0389 6.43055C14.0426 6.4189 14.049 6.40831 14.0576 6.39964C14.0662 6.39098 14.0767 6.38448 14.0882 6.38069C14.0998 6.37689 14.112 6.3759 14.124 6.3778H18.469V7.71113Z" fill="#0024A6"/>
</svg>
