<svg width="15" height="17" viewBox="0 0 15 17" fill="none" xmlns="http://www.w3.org/2000/svg">
<path d="M9.27274 0.713698C9.04267 0.487917 8.76718 0.308389 8.46265 0.185784C8.15812 0.0631798 7.83076 0 7.50002 0C7.16928 0 6.84192 0.0631798 6.53739 0.185784C6.23286 0.308389 5.95737 0.487917 5.7273 0.713698L0.990508 5.3621C0.719073 5.62848 0.536471 5.96613 0.465404 6.33193C-0.109758 9.31276 -0.152137 12.3644 0.34005 15.3586L0.513768 16.4185C0.569043 16.7533 0.87305 17 1.22937 17H4.53891C4.6698 17 4.79533 16.9506 4.88788 16.8626C4.98043 16.7747 5.03243 16.6554 5.03243 16.531V9.96549H9.96761V16.531C9.96761 16.6554 10.0196 16.7747 10.1122 16.8626C10.2047 16.9506 10.3302 17 10.4611 17H13.7707C13.9432 16.9999 14.11 16.9413 14.241 16.8347C14.3721 16.7281 14.4587 16.5805 14.4853 16.4185L14.66 15.3586C15.1521 12.3644 15.1097 9.31277 14.5346 6.33193C14.4639 5.96639 14.2808 5.62894 14.0085 5.3621L9.27274 0.713698Z" fill="#0024A6"/>
</svg>
