<svg width="19" height="17" viewBox="0 0 19 17" fill="none" xmlns="http://www.w3.org/2000/svg">
<path fill-rule="evenodd" clip-rule="evenodd" d="M5.396 0.00130767C3.7772 0.00130767 2.40033 0.601499 1.43513 1.69597C0.4788 2.77867 0 4.26149 0 5.90254C0 8.75312 1.406 11.0244 3.192 12.791C4.9704 14.5497 7.20733 15.8874 9.0592 16.8878C9.19452 16.961 9.34498 16.9995 9.49779 17C9.6506 17.0005 9.80127 16.9628 9.937 16.8904C11.7901 15.9005 14.0258 14.5524 15.8055 12.7845C17.5915 11.0127 19 8.73351 19 5.90254C19 4.25495 18.5187 2.77344 17.5611 1.69074C16.5946 0.598884 15.2177 0 13.604 0C12.2411 0 11.1137 0.521736 10.2562 1.50506C9.96323 1.84591 9.70947 2.22064 9.5 2.62175C9.29052 2.22064 9.03677 1.84591 8.7438 1.50506C7.88627 0.521736 6.75893 0.00130767 5.396 0.00130767Z" fill="#0024A6"/>
</svg>
