<svg width="15" height="21" viewBox="0 0 15 21" fill="none" xmlns="http://www.w3.org/2000/svg">
<path d="M7.50046 2.33307V12.3069C6.32554 11.677 4.87563 11.432 3.33822 11.9336C1.66332 12.4936 0.375904 13.8818 0.0759224 15.5149C-0.0627574 16.2498 -0.0109253 17.0049 0.227085 17.7172C0.465096 18.4296 0.882369 19.0784 1.44402 19.6094C2.00567 20.1404 2.69537 20.5383 3.45546 20.7696C4.21556 21.001 5.02395 21.0592 5.81307 20.9393C8.26292 20.5777 10.0003 18.4779 10.0003 16.1565V4.66614H12.5002C13.8751 4.66614 15 3.61626 15 2.33307C15 1.04988 13.8751 0 12.5002 0H10.0003C8.62539 0 7.50046 1.04988 7.50046 2.33307Z" fill="#0024A6"/>
</svg>
