<svg width="18" height="18" viewBox="0 0 18 18" fill="none" xmlns="http://www.w3.org/2000/svg">
<path d="M16.94 18C16.7411 18 16.5503 17.921 16.4097 17.7803C16.269 17.6397 16.19 17.4489 16.19 17.25V0.75C16.19 0.551088 16.269 0.360322 16.4097 0.21967C16.5503 0.0790175 16.7411 0 16.94 0C17.1389 0 17.3297 0.0790175 17.4704 0.21967C17.611 0.360322 17.69 0.551088 17.69 0.75V17.25C17.6914 17.3489 17.6729 17.447 17.6357 17.5386C17.5985 17.6302 17.5433 17.7134 17.4734 17.7833C17.4034 17.8532 17.3202 17.9084 17.2286 17.9457C17.137 17.9829 17.0389 18.0013 16.94 18ZM13.54 8.411C13.549 8.75948 13.4769 9.10528 13.3294 9.42112C13.1819 9.73696 12.963 10.0142 12.69 10.231L3.58002 17.321C3.25402 17.568 2.86702 17.721 2.46002 17.761H2.23002C1.8838 17.7696 1.54067 17.6941 1.23002 17.541C0.860194 17.3605 0.548394 17.0798 0.330021 16.731C0.112623 16.3833 -0.0017963 15.9811 2.13233e-05 15.571V2.421C0.00207319 2.02676 0.109073 1.64018 0.310021 1.301C0.518046 0.964203 0.811246 0.688249 1.16002 0.501C1.50744 0.313211 1.89934 0.223322 2.29386 0.240934C2.68839 0.258547 3.07072 0.383 3.40002 0.601L12.52 6.681C12.81 6.872 13.05 7.129 13.22 7.431C13.3995 7.72924 13.5089 8.06433 13.54 8.411Z" fill="#0024A6"/>
</svg>
