<svg width="31" height="31" viewBox="0 0 31 31" fill="none" xmlns="http://www.w3.org/2000/svg">
<path d="M24.8398 30.9997C23.4888 30.9997 21.5911 30.5112 18.7493 28.9238C15.2936 26.9863 12.6207 25.1975 9.18367 21.7702C5.86987 18.4591 4.25727 16.3154 2.00031 12.2092C-0.549407 7.573 -0.114765 5.14279 0.371093 4.10414C0.949694 2.86274 1.80375 2.12025 2.90766 1.3833C3.53467 0.972573 4.19821 0.620485 4.88985 0.331505C4.95906 0.30175 5.02343 0.273379 5.08087 0.247776C5.42347 0.0934663 5.94254 -0.139729 6.60005 0.109382C7.03884 0.274071 7.43057 0.611062 8.04378 1.21654C9.30133 2.45655 11.0198 5.21821 11.6538 6.57448C12.0794 7.48858 12.3611 8.09198 12.3618 8.76873C12.3618 9.56104 11.9632 10.172 11.4794 10.8315C11.3887 10.9554 11.2987 11.0737 11.2115 11.1886C10.6849 11.8805 10.5693 12.0805 10.6454 12.4376C10.7997 13.1551 11.9507 15.2913 13.8422 17.1783C15.7338 19.0653 17.8087 20.1434 18.5292 20.297C18.9015 20.3766 19.1057 20.2562 19.82 19.7109C19.9224 19.6327 20.0276 19.5517 20.1376 19.4708C20.8754 18.922 21.4582 18.5338 22.2319 18.5338H22.2361C22.9095 18.5338 23.486 18.8259 24.4411 19.3075C25.6869 19.9358 28.5322 21.6318 29.7801 22.8905C30.387 23.5022 30.7255 23.8925 30.8909 24.3305C31.14 24.9899 30.9054 25.5069 30.7525 25.8528C30.7269 25.9103 30.6985 25.9732 30.6687 26.0431C30.3774 26.7334 30.0231 27.3954 29.6105 28.0208C28.8748 29.121 28.1294 29.9728 26.885 30.552C26.246 30.8543 25.5466 31.0074 24.8398 30.9997Z" fill="#0024A6"/>
</svg>
