<svg width="19" height="19" viewBox="0 0 19 19" fill="none" xmlns="http://www.w3.org/2000/svg">
<path fill-rule="evenodd" clip-rule="evenodd" d="M0 3.16667C0 2.32681 0.33363 1.52136 0.927495 0.927495C1.52136 0.33363 2.32681 0 3.16667 0H15.8333C16.6732 0 17.4786 0.33363 18.0725 0.927495C18.6664 1.52136 19 2.32681 19 3.16667V15.8333C19 16.6732 18.6664 17.4786 18.0725 18.0725C17.4786 18.6664 16.6732 19 15.8333 19H3.16667C2.32681 19 1.52136 18.6664 0.927495 18.0725C0.33363 17.4786 0 16.6732 0 15.8333V3.16667ZM16.625 12.2028C16.625 11.9932 16.5418 11.7922 16.3938 11.6438L14.8105 10.0605C14.737 9.98678 14.6496 9.92828 14.5534 9.88837C14.4572 9.84846 14.3541 9.82792 14.25 9.82792C14.1459 9.82792 14.0428 9.84846 13.9466 9.88837C13.8504 9.92828 13.763 9.98678 13.6895 10.0605L11.6438 12.1062C11.5703 12.1799 11.4829 12.2384 11.3868 12.2783C11.2906 12.3182 11.1875 12.3387 11.0833 12.3387C10.9792 12.3387 10.8761 12.3182 10.7799 12.2783C10.6837 12.2384 10.5964 12.1799 10.5228 12.1062L6.89383 8.47717C6.82029 8.40344 6.73293 8.34495 6.63675 8.30504C6.54057 8.26513 6.43747 8.24459 6.33333 8.24459C6.2292 8.24459 6.12609 8.26513 6.02991 8.30504C5.93373 8.34495 5.84637 8.40344 5.77283 8.47717L2.60617 11.6438C2.45817 11.7922 2.37504 11.9932 2.375 12.2028V15.8333C2.375 16.0433 2.45841 16.2447 2.60687 16.3931C2.75534 16.5416 2.9567 16.625 3.16667 16.625H15.8333C16.0433 16.625 16.2447 16.5416 16.3931 16.3931C16.5416 16.2447 16.625 16.0433 16.625 15.8333V12.2028ZM15.8333 4.75C15.8333 5.16993 15.6665 5.57265 15.3696 5.86959C15.0727 6.16652 14.6699 6.33333 14.25 6.33333C13.8301 6.33333 13.4273 6.16652 13.1304 5.86959C12.8335 5.57265 12.6667 5.16993 12.6667 4.75C12.6667 4.33007 12.8335 3.92735 13.1304 3.63041C13.4273 3.33348 13.8301 3.16667 14.25 3.16667C14.6699 3.16667 15.0727 3.33348 15.3696 3.63041C15.6665 3.92735 15.8333 4.33007 15.8333 4.75Z" fill="#0024A6"/>
</svg>
