<svg width="18" height="18" viewBox="0 0 18 18" fill="none" xmlns="http://www.w3.org/2000/svg">
<path d="M0.750072 18C0.948984 18 1.13975 17.921 1.2804 17.7803C1.42105 17.6397 1.50007 17.4489 1.50007 17.25V0.75C1.50007 0.551088 1.42105 0.360322 1.2804 0.21967C1.13975 0.0790175 0.948984 0 0.750072 0C0.551161 0 0.360394 0.0790175 0.219742 0.21967C0.0790901 0.360322 7.24792e-05 0.551088 7.24792e-05 0.75V17.25C-0.0012722 17.3489 0.0172081 17.447 0.0544224 17.5386C0.0916367 17.6302 0.14683 17.7134 0.216743 17.7833C0.286657 17.8532 0.369873 17.9084 0.461475 17.9457C0.553078 17.9829 0.651209 18.0013 0.750072 18ZM4.15007 8.411C4.14108 8.75948 4.21319 9.10528 4.3607 9.42112C4.50821 9.73696 4.72709 10.0142 5.00007 10.231L14.1101 17.321C14.4361 17.568 14.8231 17.721 15.2301 17.761H15.4601C15.8063 17.7696 16.1494 17.6941 16.4601 17.541C16.8299 17.3605 17.1417 17.0798 17.3601 16.731C17.5775 16.3833 17.6919 15.9811 17.6901 15.571V2.421C17.688 2.02676 17.581 1.64018 17.3801 1.301C17.172 0.964203 16.8788 0.688249 16.5301 0.501C16.1827 0.313211 15.7908 0.223322 15.3962 0.240934C15.0017 0.258547 14.6194 0.383 14.2901 0.601L5.17007 6.681C4.88007 6.872 4.64007 7.129 4.47007 7.431C4.29063 7.72924 4.18121 8.06433 4.15007 8.411Z" fill="#0024A6"/>
</svg>
