<svg width="17" height="17" viewBox="0 0 17 17" fill="none" xmlns="http://www.w3.org/2000/svg">
<path d="M6.08055 2.897C7.15755 0.966 7.69555 0 8.50055 0C9.30555 0 9.84355 0.966 10.9205 2.897L11.1985 3.397C11.5045 3.946 11.6585 4.22 11.8965 4.401C12.1345 4.582 12.4315 4.649 13.0265 4.784L13.5665 4.906C15.6575 5.379 16.7036 5.616 16.9515 6.416C17.2006 7.216 16.4876 8.049 15.0616 9.716L14.6936 10.146C14.2886 10.62 14.0865 10.857 13.9945 11.15C13.9045 11.443 13.9346 11.759 13.9956 12.39L14.0515 12.966C14.2675 15.19 14.3745 16.302 13.7235 16.796C13.0725 17.291 12.0935 16.84 10.1365 15.939L9.62955 15.705C9.07355 15.449 8.79555 15.321 8.50055 15.321C8.20555 15.321 7.92755 15.449 7.37055 15.705L6.86455 15.939C4.90755 16.839 3.92855 17.291 3.27755 16.796C2.62655 16.302 2.73455 15.19 2.94955 12.966L3.00555 12.391C3.06655 11.759 3.09755 11.443 3.00555 11.151C2.91555 10.857 2.71255 10.621 2.30755 10.147L1.93855 9.715C0.513549 8.049 -0.199451 7.215 0.0485488 6.415C0.298549 5.615 1.34355 5.379 3.43455 4.906L3.97455 4.784C4.56955 4.649 4.86655 4.582 5.10455 4.401C5.34355 4.221 5.49655 3.946 5.80255 3.397L6.08055 2.897Z" fill="#0024A6"/>
</svg>
