<svg width="34" height="20" viewBox="0 0 34 20" fill="none" xmlns="http://www.w3.org/2000/svg">
<path d="M24.9332 2.22222V17.7778C24.9332 18.3671 24.6944 18.9324 24.2693 19.3491C23.8442 19.7659 23.2677 20 22.6666 20H2.26666C1.6655 20 1.08897 19.7659 0.663888 19.3491C0.238808 18.9324 0 18.3671 0 17.7778V2.22222C0 1.63285 0.238808 1.06762 0.663888 0.650874C1.08897 0.234126 1.6655 0 2.26666 0H22.6666C23.2677 0 23.8442 0.234126 24.2693 0.650874C24.6944 1.06762 24.9332 1.63285 24.9332 2.22222ZM33.1498 2.25694C32.99 2.21859 32.8236 2.21385 32.6617 2.24306C32.4998 2.27226 32.3461 2.33474 32.2106 2.42639L27.452 5.53611C27.3744 5.58689 27.3108 5.65567 27.2668 5.73635C27.2228 5.81704 27.1998 5.90712 27.1999 5.99861V14.0014C27.1998 14.0929 27.2228 14.183 27.2668 14.2636C27.3108 14.3443 27.3744 14.4131 27.452 14.4639L32.2375 17.5917C32.4166 17.7088 32.6261 17.7735 32.8413 17.7782C33.0566 17.7829 33.2688 17.7273 33.453 17.6181C33.6235 17.5118 33.7633 17.3645 33.859 17.1901C33.9547 17.0158 34.0032 16.8202 33.9998 16.6222V3.33333C34 3.08691 33.9165 2.84743 33.7627 2.65258C33.6088 2.45773 33.3932 2.31855 33.1498 2.25694Z" fill="#0024A6"/>
</svg>
